<svg width="100%" height="480" viewBox="0 0 960 480" fill="none" xmlns="http://www.w3.org/2000/svg">
  <rect width="960" height="480" fill="#fff"/>
  <!-- Ground -->
  <rect x="0" y="400" width="960" height="80" fill="#222" />
  <!-- Running Deers -->
  <g>
    <!-- Deer 1 -->
    <ellipse cx="200" cy="420" rx="18" ry="10" fill="#444" />
    <rect x="190" y="410" width="20" height="8" fill="#222" />
    <rect x="195" y="405" width="10" height="8" fill="#333" />
    <rect x="210" y="415" width="8" height="4" fill="#222" transform="rotate(-20 210 415)" />
    <!-- Deer 2 -->
    <ellipse cx="250" cy="430" rx="16" ry="9" fill="#333" />
    <rect x="240" y="420" width="18" height="7" fill="#222" />
    <rect x="245" y="415" width="8" height="7" fill="#444" />
    <rect x="260" y="425" width="7" height="3" fill="#222" transform="rotate(15 260 425)" />
    <!-- Deer 3 -->
    <ellipse cx="300" cy="415" rx="14" ry="8" fill="#222" />
    <rect x="290" y="405" width="16" height="6" fill="#333" />
    <rect x="295" y="400" width="7" height="6" fill="#444" />
    <rect x="310" y="410" width="6" height="2" fill="#222" transform="rotate(-10 310 410)" />
  </g>
</svg>
