<svg width="100%" height="180" viewBox="0 0 960 180" fill="none" xmlns="http://www.w3.org/2000/svg">
  <rect width="960" height="180" fill="white"/>
  <g>
    <ellipse cx="480" cy="120" rx="220" ry="50" fill="#000" fill-opacity="0.12" />
    <ellipse cx="180" cy="150" rx="80" ry="25" fill="#000" fill-opacity="0.18" />
    <ellipse cx="780" cy="150" rx="80" ry="25" fill="#000" fill-opacity="0.18" />
    <rect x="0" y="160" width="960" height="20" fill="#000" />
    <g>
      <rect x="60" y="140" width="12" height="20" fill="#222" />
      <rect x="80" y="135" width="10" height="25" fill="#222" />
      <rect x="100" y="145" width="8" height="15" fill="#222" />
      <rect x="120" y="140" width="12" height="20" fill="#222" />
      <rect x="140" y="150" width="7" height="10" fill="#222" />
    </g>
    <g>
      <rect x="860" y="140" width="12" height="20" fill="#222" />
      <rect x="880" y="135" width="10" height="25" fill="#222" />
      <rect x="900" y="145" width="8" height="15" fill="#222" />
      <rect x="920" y="140" width="12" height="20" fill="#222" />
      <rect x="940" y="150" width="7" height="10" fill="#222" />
    </g>
    <ellipse cx="820" cy="150" rx="20" ry="30" fill="#222" />
    <ellipse cx="840" cy="150" rx="12" ry="20" fill="#222" />
  </g>
</svg>
